Coordinates
version=1
nRows=14
nColumns=40
inDegrees=yes

Units are S.I. units (second, meters, Newtons, ...)
If the header above contains a line with 'inDegrees', this indicates whether rotational values are in degrees (yes) or radians (no).

endheader
time	pelvis_tilt	pelvis_list	pelvis_rotation	pelvis_tx	pelvis_ty	pelvis_tz	hip_flexion_r	hip_adduction_r	hip_rotation_r	knee_angle_r	knee_angle_r_beta	ankle_angle_r	subtalar_angle_r	mtp_angle_r	hip_flexion_l	hip_adduction_l	hip_rotation_l	knee_angle_l	knee_angle_l_beta	ankle_angle_l	subtalar_angle_l	mtp_angle_l	lumbar_extension	lumbar_bending	lumbar_rotation	arm_flex_r	arm_add_r	arm_rot_r	elbow_flex_r	pro_sup_r	wrist_flex_r	wrist_dev_r	arm_flex_l	arm_add_l	arm_rot_l	elbow_flex_l	pro_sup_l	wrist_flex_l	wrist_dev_l
     15.77500000	      9.98660463	     -3.17370581	   -178.88516725	      0.28203055	      0.72920443	     -0.95177016	     62.13796349	    -47.92101605	    -12.05028833	     59.28796787	      1.03477025	     -2.89652775	      0.00000000	      0.00000000	     56.69538587	    -40.28610559	    -14.06066179	     59.90437373	      1.04552856	      2.50909802	      0.00000000	      0.00000000	    -65.84137600	      0.60156715	     -0.55627632	     56.38245626	    -13.15210195	     40.94935174	      6.36649260	     40.75150682	      0.00000000	      0.00000000	     66.59880465	    -12.70251868	     52.56520333	     17.01909125	     79.22616602	      0.00000000	      0.00000000
     15.78000000	     10.03958134	     -3.18153429	   -178.90589018	      0.28243548	      0.72998305	     -0.95171489	     62.03393000	    -47.83893901	    -12.15378741	     59.03681000	      1.03038671	     -3.00295868	      0.00000000	      0.00000000	     56.59728376	    -40.20894871	    -14.15563157	     59.67542462	      1.04153264	      2.43197296	      0.00000000	      0.00000000	    -65.82438154	      0.59113444	     -0.54584833	     56.46935344	    -13.22328983	     40.82681994	      6.50376807	     40.75767021	      0.00000000	      0.00000000	     66.62395872	    -12.75328325	     52.54791331	     17.04394090	     79.32776925	      0.00000000	      0.00000000
     15.78500000	     10.08361063	     -3.20636483	   -178.84473578	      0.28282325	      0.73062193	     -0.95150955	     62.00511753	    -47.90814838	    -12.27535860	     58.94920297	      1.02885768	     -3.03918514	      0.00000000	      0.00000000	     56.61672330	    -40.06309280	    -14.12717909	     59.59064792	      1.04005301	      2.38193614	      0.00000000	      0.00000000	    -65.80967768	      0.63174778	     -0.57656239	     56.40954011	    -13.24159148	     40.82741877	      6.48309204	     40.76034914	      0.00000000	      0.00000000	     66.65979621	    -12.72988943	     52.54560067	     17.06556995	     79.34882921	      0.00000000	      0.00000000
     15.79000000	     10.16868914	     -3.16299714	   -178.89766809	      0.28334742	      0.73154134	     -0.95153877	     61.86544815	    -47.70958803	    -12.38875710	     58.60859061	      1.02291288	     -3.25390868	      0.00000000	      0.00000000	     56.52107162	    -40.02148250	    -14.19939319	     59.25345858	      1.03416795	      2.22978571	      0.00000000	      0.00000000	    -65.77908576	      0.62240871	     -0.49181753	     56.49361302	    -13.25734946	     40.85704084	      6.47461446	     40.76777128	      0.00000000	      0.00000000	     66.75368763	    -12.71254552	     52.53803656	     17.07539427	     79.41770361	      0.00000000	      0.00000000
     15.79500000	     10.17715783	     -3.15353254	   -178.92621863	      0.28374684	      0.73249816	     -0.95147769	     61.69220552	    -47.61230049	    -12.51744546	     58.33889108	      1.01820573	     -3.43498169	      0.00000000	      0.00000000	     56.38150266	    -39.97488310	    -14.30541198	     59.03316121	      1.03032303	      2.13170272	      0.00000000	      0.00000000	    -65.82178377	      0.61989458	     -0.46112985	     56.59758088	    -13.28274607	     40.88926845	      6.45629071	     40.77323982	      0.00000000	      0.00000000	     66.84101796	    -12.67784023	     52.54837645	     17.05197403	     79.50423914	      0.00000000	      0.00000000
     15.80000000	     10.20770481	     -3.18576466	   -178.85456845	      0.28408435	      0.73309732	     -0.95125183	     61.65553550	    -47.71200159	    -12.65145349	     58.26861424	      1.01697917	     -3.45242240	      0.00000000	      0.00000000	     56.39798409	    -39.82308048	    -14.27685712	     58.97258358	      1.02926575	      2.08890291	      0.00000000	      0.00000000	    -65.78246903	      0.67912716	     -0.50195155	     56.62807712	    -13.29430911	     40.89421905	      6.45978376	     40.77452048	      0.00000000	      0.00000000	     66.86336422	    -12.64784295	     52.55674567	     17.05332495	     79.51876531	      0.00000000	      0.00000000
     15.80500000	     10.31165426	     -3.12579515	   -178.89850366	      0.28458828	      0.73410394	     -0.95130567	     61.48357838	    -47.50751226	    -12.82108284	     57.90974860	      1.01071578	     -3.67397615	      0.00000000	      0.00000000	     56.30170671	    -39.79120773	    -14.37423779	     58.58644189	      1.02252631	      1.92669663	      0.00000000	      0.00000000	    -65.73546315	      0.68868497	     -0.42761652	     56.70170787	    -13.28189206	     40.93174817	      6.43516641	     40.77527402	      0.00000000	      0.00000000	     66.99170641	    -12.62689116	     52.58475582	     17.01109543	     79.57309902	      0.00000000	      0.00000000
     15.81000000	     10.32683127	     -3.11892287	   -178.91041981	      0.28503683	      0.73500551	     -0.95124700	     61.32026031	    -47.43468204	    -12.96588304	     57.66130775	      1.00637967	     -3.81504600	      0.00000000	      0.00000000	     56.20030072	    -39.72634120	    -14.43481194	     58.39158152	      1.01912535	      1.82522143	      0.00000000	      0.00000000	    -65.74922857	      0.70060854	     -0.42888719	     56.87991733	    -13.29139364	     40.90935577	      6.46308344	     40.76326575	      0.00000000	      0.00000000	     67.06580315	    -12.60091847	     52.63323708	     16.94166410	     79.62643200	      0.00000000	      0.00000000
     15.81500000	      9.94175888	     -3.19273369	   -179.00194078	      0.28496002	      0.73708672	     -0.95135766	     60.65880493	    -47.43431831	    -13.28719685	     57.31992043	      1.00042134	     -4.04093902	      0.00000000	      0.00000000	     55.34195603	    -39.74664110	    -15.01938810	     58.02364989	      1.01270373	      1.74720184	      0.00000000	      0.00000000	    -66.23407011	      0.60165611	     -0.36277254	     56.90899554	    -13.37749821	     41.00677819	      6.39641354	     40.77299482	      0.00000000	      0.00000000	     67.36179412	    -12.38533272	     52.99642643	     16.58709645	     79.98382624	      0.00000000	      0.00000000
     15.82000000	     10.14041995	     -3.07162018	   -178.94283211	      0.28552756	      0.73752376	     -0.95113269	     60.60789401	    -47.35386207	    -13.57719859	     57.13127749	      0.99712890	     -4.18430424	      0.00000000	      0.00000000	     55.64265045	    -39.67830987	    -14.78168800	     57.88895034	      1.01035278	      1.60955935	      0.00000000	      0.00000000	    -66.02991004	      0.73132656	     -0.22783010	     56.86273442	    -13.49935132	     41.06999429	      6.53607748	     40.69272564	      0.00000000	      0.00000000	     67.31599303	    -12.36753562	     52.97241305	     16.76847229	     79.45313531	      0.00000000	      0.00000000
     15.82500000	     10.20174583	     -3.08132002	   -178.93854713	      0.28606220	      0.73853520	     -0.95101400	     60.45008641	    -47.25874323	    -13.69286368	     56.78426010	      0.99107230	     -4.30283461	      0.00000000	      0.00000000	     55.54249130	    -39.53791606	    -14.82461588	     57.59925886	      1.00529671	      1.48600917	      0.00000000	      0.00000000	    -66.01236576	      0.75572185	     -0.26880722	     56.98114509	    -13.46371769	     41.05037558	      6.54556345	     40.68689070	      0.00000000	      0.00000000	     67.42670996	    -12.38316709	     53.05467315	     16.66901418	     79.54356611	      0.00000000	      0.00000000
     15.83000000	      9.98823915	     -3.14247376	   -179.00547798	      0.28617802	      0.74013294	     -0.95107372	     60.02870839	    -47.25160033	    -13.94686878	     56.50058040	      0.98612116	     -4.48546177	      0.00000000	      0.00000000	     54.96939571	    -39.50550166	    -15.22186962	     57.27300083	      0.99960244	      1.37978488	      0.00000000	      0.00000000	    -66.29174239	      0.66770125	     -0.27176383	     57.06803439	    -13.48880972	     40.93688327	      6.50875876	     40.66854881	      0.00000000	      0.00000000	     67.63163496	    -12.31384575	     53.40149447	     16.46490435	     79.96714856	      0.00000000	      0.00000000
     15.83500000	     10.03910830	     -3.13816347	   -178.98372879	      0.28660442	      0.74113774	     -0.95095203	     59.85017223	    -47.20535219	    -14.15810204	     56.21339213	      0.98110878	     -4.59505876	      0.00000000	      0.00000000	     54.87769412	    -39.36625263	    -15.24568749	     56.98949058	      0.99465425	      1.24739587	      0.00000000	      0.00000000	    -66.27470429	      0.71600902	     -0.30977626	     57.22820238	    -13.45662362	     40.81370937	      6.52596576	     40.50681139	      0.00000000	      0.00000000	     67.67814098	    -12.36506633	     53.49138643	     16.45667624	     79.64841117	      0.00000000	      0.00000000
     15.84000000	     10.10941051	     -3.13262022	   -178.99734114	      0.28709198	      0.74206242	     -0.95087951	     59.73062476	    -47.10891803	    -14.28771378	     55.91537243	      0.97590735	     -4.80265649	      0.00000000	      0.00000000	     54.82815125	    -39.29168895	    -15.31357448	     56.76026196	      0.99065346	      1.06477447	      0.00000000	      0.00000000	    -66.23414959	      0.70464449	     -0.27985091	     57.26792984	    -13.51347670	     40.77241740	      6.59589045	     40.51110384	      0.00000000	      0.00000000	     67.71894283	    -12.33855540	     53.51846627	     16.52865662	     79.82172815	      0.00000000	      0.00000000
